<svg width="1280" height="720" xmlns="http://www.w3.org/2000/svg" xmlns:xlink="http://www.w3.org/1999/xlink"
      overflow="hidden">
      <defs>
            <clipPath id="clip0">
                  <rect x="0" y="0" width="1280" height="720" />
            </clipPath>
            <linearGradient x1="12.3524" y1="-2.53072" x2="96.6476" y2="475.531" gradientUnits="userSpaceOnUse"
                  spreadMethod="reflect" id="fill2">
                  <stop offset="0" stop-color="#F19A13" />
                  <stop offset="0.33" stop-color="#E73F42" />
                  <stop offset="0.66" stop-color="#982A7C" />
                  <stop offset="0.99" stop-color="#00A0E3" />
                  <stop offset="1" stop-color="#00A0E3" />
            </linearGradient>
            <linearGradient x1="1282.45" y1="13.8675" x2="804.555" y2="98.1325" gradientUnits="userSpaceOnUse"
                  spreadMethod="reflect" id="fill3">
                  <stop offset="0" stop-color="#F19A13" />
                  <stop offset="0.33" stop-color="#E73F42" />
                  <stop offset="0.66" stop-color="#982A7C" />
                  <stop offset="0.99" stop-color="#00A0E3" />
                  <stop offset="1" stop-color="#00A0E3" />
            </linearGradient>
            <clipPath id="clip5">
                  <rect x="129" y="628" width="94" height="66" />
            </clipPath>
            <clipPath id="clip6">
                  <rect x="129" y="628" width="94" height="66" />
            </clipPath>
            <clipPath id="clip7">
                  <rect x="129" y="628" width="94" height="66" />
            </clipPath>
            <linearGradient x1="3.14127" y1="18.6414" x2="91.7848" y2="18.6414" gradientUnits="userSpaceOnUse"
                  spreadMethod="pad" id="fill8">
                  <stop offset="0" stop-color="#F4A500" />
                  <stop offset="0.25" stop-color="#E95A0C" />
                  <stop offset="0.5" stop-color="#E40050" />
                  <stop offset="0.75" stop-color="#821F81" />
                  <stop offset="1" stop-color="#009EE2" />
            </linearGradient>
            <linearGradient x1="4.47611" y1="21.2106" x2="61.5085" y2="22.2079" gradientUnits="userSpaceOnUse"
                  spreadMethod="pad" id="fill9">
                  <stop offset="0" stop-color="#D05C05" />
                  <stop offset="0.33" stop-color="#AF0B2B" />
                  <stop offset="0.75" stop-color="#B0063E" />
                  <stop offset="1" stop-color="#3F2071" />
            </linearGradient>
            <linearGradient x1="1.16735" y1="37.0922" x2="93.7999" y2="37.0922" gradientUnits="userSpaceOnUse"
                  spreadMethod="pad" id="fill10">
                  <stop offset="0" stop-color="#F4A500" />
                  <stop offset="0.25" stop-color="#E95A0C" />
                  <stop offset="0.5" stop-color="#E40050" />
                  <stop offset="0.75" stop-color="#821F81" />
                  <stop offset="1" stop-color="#009EE2" />
            </linearGradient>
            <linearGradient x1="1.16735" y1="36.7237" x2="93.7999" y2="36.7237" gradientUnits="userSpaceOnUse"
                  spreadMethod="pad" id="fill11">
                  <stop offset="0" stop-color="#CE8D00" />
                  <stop offset="0.25" stop-color="#C54E07" />
                  <stop offset="0.5" stop-color="#C10344" />
                  <stop offset="0.75" stop-color="#71196F" />
                  <stop offset="1" stop-color="#0087C1" />
            </linearGradient>
            <linearGradient x1="54.1437" y1="25.8723" x2="56.3985" y2="25.8723" gradientUnits="userSpaceOnUse"
                  spreadMethod="pad" id="fill12">
                  <stop offset="0" stop-color="#872266" />
                  <stop offset="1" stop-color="#711D62" />
            </linearGradient>
            <linearGradient x1="1.19311" y1="53.1696" x2="93.8438" y2="53.1696" gradientUnits="userSpaceOnUse"
                  spreadMethod="pad" id="fill13">
                  <stop offset="0" stop-color="#E40050" />
                  <stop offset="1" stop-color="#821F81" />
            </linearGradient>
            <linearGradient x1="1.12611" y1="40.1819" x2="84.0231" y2="40.1819" gradientUnits="userSpaceOnUse"
                  spreadMethod="pad" id="fill14">
                  <stop offset="0" stop-color="#F4A500" />
                  <stop offset="0.25" stop-color="#E95A0C" />
                  <stop offset="0.5" stop-color="#E40050" />
                  <stop offset="0.75" stop-color="#821F81" />
                  <stop offset="1" stop-color="#009EE2" />
            </linearGradient>
            <linearGradient x1="1.12611" y1="42.3594" x2="84.0231" y2="42.3594" gradientUnits="userSpaceOnUse"
                  spreadMethod="pad" id="fill15">
                  <stop offset="0" stop-color="#F4A500" />
                  <stop offset="0.25" stop-color="#E95A0C" />
                  <stop offset="0.5" stop-color="#E40050" />
                  <stop offset="0.75" stop-color="#821F81" />
                  <stop offset="1" stop-color="#009EE2" />
            </linearGradient>
            <linearGradient x1="1.12611" y1="42.3594" x2="84.0231" y2="42.3594" gradientUnits="userSpaceOnUse"
                  spreadMethod="pad" id="fill16">
                  <stop offset="0" stop-color="#F4A500" />
                  <stop offset="0.25" stop-color="#E95A0C" />
                  <stop offset="0.5" stop-color="#E40050" />
                  <stop offset="0.75" stop-color="#821F81" />
                  <stop offset="1" stop-color="#009EE2" />
            </linearGradient>
      </defs>
      <g clip-path="url(#clip0)">
            <rect x="0" y="0" width="1280" height="720" fill="#FFFFFF" />
            <rect x="-5.34058e-05" y="694" width="113" height="26" fill="#FFFFFF" />
            <rect x="0" y="612" width="26" height="108" fill="#FFFFFF" />
            <rect x="1254" y="0" width="26" height="113" fill="#FFFFFF" />
            <rect x="1167" y="5.24934e-05" width="113" height="26" fill="#FFFFFF" />
            <path d="M0 0 1280 0 1280 720 1280 720 1280 693.941 1073.47 693.941 1073.47 720 0 720Z" fill="#FFFFFF"
                  fill-rule="evenodd" />
            <rect x="1073" y="694" width="207" height="26" fill="#F7E600" />
            <rect x="-5.34058e-05" y="694" width="111" height="26" fill="#F2F2F2" />
            <rect x="0" y="625" width="26" height="95" fill="#F2F2F2" />
            <path d="M-2 6.91925e-15 27.0783 5.13872e-15 27.0783 0.000104907 111 0.000104907 111 25.6352 27.0783 25.6352 27.0783 473-2 473Z"
                  fill="url(#fill2)" fill-rule="evenodd" />
            <path d="M1280 0 1280 28.821 1280 28.821 1280 112 1254.36 112 1254.36 28.821 807 28.821 807 0Z"
                  fill="url(#fill3)" fill-rule="evenodd" />
            <svg width="105" height="23" transform="translate(1021 650)" viewBox="0 0 425 100" fill="#3c3c3c" stroke="#3c3c3c">
                  <g>
                        <g>
                              <g>
                                    <path class="st1" d="M172,69.9c-1.1,0.9-2.4,1.6-3.9,2.1c-1.6,0.5-3.2,0.7-4.8,0.7c-4,0-7.2-1.1-9.4-3.2
				c-2.2-2.2-3.3-5.3-3.3-9.3v-22h-6.8v-6h6.8v-8.8h7.3v8.8h11.5v6h-11.5v21.7c0,2.2,0.5,3.8,1.6,5c1.1,1.2,2.6,1.7,4.6,1.7
				c2.2,0,4.1-0.6,5.7-1.9L172,69.9z" />
                                    <path class="st1" d="M185.8,70c-3.2-1.8-5.7-4.2-7.4-7.3c-1.8-3.1-2.7-6.6-2.7-10.5c0-3.9,0.9-7.4,2.7-10.5
				c1.8-3.1,4.3-5.5,7.4-7.3c3.2-1.7,6.8-2.6,10.7-2.6c4,0,7.5,0.9,10.7,2.6c3.1,1.7,5.6,4.2,7.4,7.3c1.8,3.1,2.7,6.6,2.7,10.5
				c0,3.9-0.9,7.4-2.7,10.5c-1.8,3.1-4.3,5.5-7.4,7.3c-3.1,1.8-6.7,2.6-10.7,2.6C192.6,72.7,189,71.8,185.8,70z M203.4,64.5
				c2-1.2,3.6-2.8,4.8-5c1.2-2.1,1.7-4.6,1.7-7.4c0-2.8-0.6-5.2-1.7-7.4c-1.2-2.1-2.8-3.8-4.8-5c-2-1.2-4.3-1.7-6.9-1.7
				c-2.6,0-4.9,0.6-6.9,1.7c-2,1.2-3.7,2.8-4.8,5c-1.2,2.1-1.8,4.6-1.8,7.4c0,2.8,0.6,5.2,1.8,7.4c1.2,2.1,2.8,3.8,4.8,5
				c2,1.2,4.3,1.8,6.9,1.8C199.1,66.3,201.4,65.7,203.4,64.5z" />
                                    <path class="st1"
                                          d="M259,34.4c3.1,1.7,5.5,4.1,7.2,7.2c1.7,3.1,2.6,6.6,2.6,10.7c0,4-0.9,7.6-2.6,10.7c-1.7,3.1-4.1,5.5-7.2,7.2
				c-3.1,1.7-6.5,2.6-10.4,2.6c-2.9,0-5.5-0.6-7.9-1.7c-2.4-1.1-4.4-2.7-6.1-4.8v20.7h-7.3V32.2h7v6.3c1.6-2.2,3.7-3.9,6.1-5
				c2.5-1.1,5.2-1.7,8.2-1.7C252.5,31.8,256,32.6,259,34.4z M254.9,64.5c2-1.2,3.7-2.8,4.8-5c1.2-2.1,1.8-4.6,1.8-7.4
				c0-2.8-0.6-5.2-1.8-7.4c-1.2-2.1-2.8-3.8-4.8-5c-2-1.2-4.3-1.7-6.9-1.7c-2.5,0-4.8,0.6-6.8,1.8c-2,1.2-3.7,2.8-4.8,5
				s-1.8,4.6-1.8,7.3c0,2.8,0.6,5.2,1.7,7.4c1.2,2.1,2.8,3.8,4.8,5c2.1,1.2,4.4,1.8,6.9,1.8C250.6,66.3,252.9,65.7,254.9,64.5z" />
                                    <path class="st1" d="M279,23.1c-0.9-0.9-1.4-2-1.4-3.3c0-1.3,0.5-2.4,1.4-3.4c0.9-0.9,2.1-1.4,3.5-1.4c1.4,0,2.6,0.4,3.5,1.3
				c0.9,0.9,1.4,2,1.4,3.3c0,1.4-0.5,2.5-1.4,3.4c-0.9,0.9-2.1,1.4-3.5,1.4C281.1,24.5,280,24,279,23.1z M278.9,32.2h7.3v40.1h-7.3
				V32.2z" />
                                    <path class="st1" d="M306.5,70c-3.2-1.8-5.7-4.2-7.5-7.3c-1.8-3.1-2.7-6.6-2.7-10.5c0-3.9,0.9-7.4,2.7-10.5
				c1.8-3.1,4.3-5.5,7.5-7.3c3.2-1.7,6.8-2.6,10.9-2.6c3.6,0,6.9,0.7,9.7,2.2c2.8,1.5,5,3.6,6.6,6.3l-5.5,3.6
				c-1.3-1.9-2.8-3.4-4.7-4.3c-1.9-1-3.9-1.4-6.2-1.4c-2.6,0-5,0.6-7.1,1.7c-2.1,1.2-3.7,2.8-4.9,5c-1.2,2.1-1.8,4.6-1.8,7.4
				c0,2.8,0.6,5.3,1.8,7.4c1.2,2.1,2.8,3.8,4.9,5c2.1,1.2,4.4,1.7,7.1,1.7c2.3,0,4.3-0.5,6.2-1.4c1.9-1,3.4-2.4,4.7-4.3l5.5,3.5
				c-1.6,2.8-3.8,4.9-6.6,6.4c-2.8,1.5-6.1,2.2-9.7,2.2C313.4,72.7,309.7,71.8,306.5,70z" />
                                    <path class="st1" d="M380.5,32.2v40.1h-6.9v-6c-1.5,2.1-3.4,3.7-5.8,4.8c-2.4,1.1-5,1.7-7.8,1.7c-5.3,0-9.5-1.5-12.6-4.4
				s-4.6-7.3-4.6-13V32.2h7.3v22.2c0,3.9,0.9,6.8,2.8,8.8c1.9,2,4.5,3,8,3c3.8,0,6.9-1.2,9.1-3.5c2.2-2.3,3.3-5.6,3.3-9.8V32.2
				H380.5z" />
                                    <path class="st1" d="M396.4,71.3c-3-0.9-5.4-2-7.1-3.4l3-5.7c1.8,1.3,3.9,2.3,6.4,3s5.1,1.1,7.6,1.1c6.3,0,9.5-1.8,9.5-5.4
				c0-1.2-0.4-2.2-1.3-2.9c-0.9-0.7-1.9-1.2-3.2-1.5c-1.3-0.3-3.1-0.7-5.5-1.1c-3.2-0.5-5.9-1.1-7.9-1.7c-2-0.7-3.8-1.8-5.3-3.3
				c-1.5-1.6-2.2-3.8-2.2-6.6c0-3.6,1.5-6.5,4.5-8.7c3-2.2,7.1-3.3,12.2-3.3c2.7,0,5.3,0.3,8,1c2.7,0.7,4.9,1.5,6.6,2.6l-3.1,5.7
				c-3.3-2.1-7.1-3.2-11.6-3.2c-3.1,0-5.4,0.5-7,1.5c-1.6,1-2.4,2.3-2.4,4c0,1.3,0.5,2.3,1.4,3.1c0.9,0.8,2,1.3,3.4,1.7
				c1.3,0.4,3.2,0.8,5.6,1.2c3.2,0.6,5.8,1.1,7.8,1.8c2,0.6,3.7,1.7,5.1,3.2c1.4,1.5,2.1,3.6,2.1,6.3c0,3.6-1.5,6.5-4.6,8.7
				c-3.1,2.1-7.3,3.2-12.7,3.2C402.5,72.7,399.4,72.2,396.4,71.3z" />
                              </g>
                        </g>
                        <g id="Hypotheken_2_" transform="translate(-1032.000000, -3855.000000)">
                              <g id="Footer_2_" transform="translate(0.000000, 3605.000000)">
                                    <path id="hagedis_2_" class="st0" d="M1109.2,279.6c6.7,4.5,6.2,10.6,11.7,19c5.5,8.4,11.1,9.4,11.1,9.4s2.6-0.6,5.1-1.7
				c2.5-1.1,11.5-13.6,11.5-13.6l-7.1,3.3l1.8-9.6l-8.1,10.5l-4.3-8.7l-0.1,11c-1.9-0.1-3.3-1.5-4.1-3.9c-0.8-2.3-2.6-6.9-2.6-6.9
				l8-8.4c-11.1-1.1-15-4-17-6.2c-2.1-2.2-2.1-2.4-3.2-2.5c-0.7-0.1-1.9,0.2-1.9,0.2c-4.7,0.3-13.9-4.8-13.9-4.8s3.6-1.4,7.6-3.6
				c4-2.2,4.9-5.5,4.9-5.5l-4,1.8l-0.3-8l-3.3,6.2l-3-6.6l0.1,7.3l-7.7,6.2l-2.5,3.5l7.7,4.3
				C1101.6,276.2,1102.5,275.1,1109.2,279.6z M1099.6,297.3c4,1.6,7.7,6.8,7.7,6.8l7.2-6.6c-0.2-14.5-9.6-17.4-9.6-17.4
				c-1,2.6-14.8,12.9-14.8,12.9C1091.1,294.2,1095.2,295.5,1099.6,297.3L1099.6,297.3z M1078.7,291c2.1,0,6.1,3.4,6.6,7.6
				c0.5,4.2-0.6,8.2,1.8,13.6c2.2,5.1,1.1,7.5,0.9,7.8c0.5-1.2,4.2-5.4,5.4-6.5c1.3-1.1,2.8-1.9,8.9,4.3c6.1,6.2-12.8,8.8-12.8,8.8
				l6.6,14.3l0.2-7.3l4.8,6.1l-0.6-7.7l5,2l-3.9-4.9l9-3.8c0,0-1.9-8.8-3.7-13.3c-1.8-4.5-5.1-8.2-7.3-10.3
				c-2.9-2.8-8.5-4.2-11.1-7.2c-2.6-3-9.3-14.9-9.3-14.9l-2.1,3.3c-2.1,3-5.6,9.8-5.6,9.8l-6.2-3.6l2.8,4.9l-4.8,1l3.7,1.9l-1.7,3.1
				l10.3-1.5L1078.7,291L1078.7,291z M1037.8,314.4c-8.4,8.9-5.2,15.9-5.2,15.9c6.3,7.7,22.8,7.3,31.6,5c9-2.5,18.1-8.3,19.4-10.2
				c1.3-1.9,2.2-6.5,1-9.7c-2.1-5.8-1.6-9.8-1.6-9.8c-1.9,6.9-6.1,11.6-16.7,19.2c-10.6,7.7-21.5,2.1-24.8-0.3
				c-3.3-2.4-1.6-6.3,4.5-11c6.1-4.6,17.5-3.5,19.7-1.8c1.3,1,1.6,3.8-0.1,5.6c-1.8,1.8-3.9,2.6-6.1,0.9c-2.2-1.7-0.6-4.4-0.6-4.4
				s-2.2-0.1-3.9,2.9c-1.6,3-0.7,4,5.5,5.3c6.3,1.2,7.6-2.3,9.4-5.9c1.8-3.6,0.3-6.3-6.1-8.8
				C1057.3,304.7,1046.2,305.6,1037.8,314.4L1037.8,314.4z M1149.7,259.7c-1.5,0.4-5.9,2.6-6.1,3.3c0,0,9.3-2,10.4-1.7
				c1.1,0.4,2.8,0.2,4.6-1.3c1.9-1.5,5.6-4.1,4.1-6c-1.5-1.9-3-4.8-5.4-3.9c-2.4,0.9-5.4,1.3-5,2.6c0.4,1.3,0.7,2.4,1.3,2.6
				c0.6,0.2,1.5,1.1,2.8,0.2c1.3-0.9,1.5-2.2,1.5-2.2s-1.3,0.7-1.9,0.7c-0.6,0-1.3-0.2-1.1-0.7c0.2-0.6,1.9-1.3,1.9-1.3
				s1.9-0.4,2.6,0.2c0.7,0.6,1.1,3,1.1,3s-1.9,3.4-2.8,3.7c-0.9,0.4-2.4,0.6-3.2,0.6C1153.7,259.5,1151.1,259.3,1149.7,259.7
				L1149.7,259.7z M1126.6,262.8c1.1,0,1.9,1,1.9,2.2c0,1.2-0.9,2.2-1.9,2.2c-1.1,0-1.9-1-1.9-2.2
				C1124.7,263.8,1125.5,262.8,1126.6,262.8L1126.6,262.8z M1140.2,261.7c4.6-5.2,9.3-5.6,0.8-8.8c-6.1-2.3-14.4-1.3-21.1,0.8
				c-3.5,1.1-6.1,8.8-5.3,11.9c0.8,3-0.7,3.7-0.7,3.7s0.8-0.1,3,1.4c2.2,1.5,2.5,2.8,7.2,3.3c4.7,0.6,13.8,0.7,13.8,0.7l10.1-10.6
				l-15.8,4.1C1132.3,268.3,1138.1,264.1,1140.2,261.7L1140.2,261.7z" />
                              </g>
                        </g>
                  </g>
            </svg>
            <g clip-path="url(#clip5)">
                  <g clip-path="url(#clip6)">
                        <g clip-path="url(#clip7)">
                              <path d="M77.1711 17.4921C72.981 16.1444 69.8758 18.8347 65.6986 17.4921 65.6986 15.1549 65.6986 12.8202 65.6986 10.4829 69.8758 11.8255 72.9836 9.13519 77.1711 10.4829L77.1711 17.4921Z"
                                    fill="#FFFFFF" transform="matrix(1.00166 0 0 1 129 628.033)" />
                              <path d="M68.2214 18.0075C67.402 18.0075 66.5516 17.9019 65.6574 17.6158L65.5672 17.5849 65.5672 10.3 65.7398 10.3541C67.7936 11.0138 69.6284 10.6762 71.4039 10.3489 73.2129 10.0139 75.0863 9.67119 77.2149 10.3541L77.3051 10.385 77.3051 17.67 77.1324 17.6158C75.0683 16.9536 73.231 17.2911 71.4529 17.6184 70.4092 17.8117 69.345 18.0075 68.224 18.0075Z"
                                    fill="#F8E700" transform="matrix(1.00166 0 0 1 129 628.033)" />
                              <path d="M72.1023 13.0418C72.4837 13.2969 72.4527 13.6396 72.7645 14.1112 73.0763 14.5854 73.3959 14.6395 73.3959 14.6395 73.3959 14.6395 73.5428 14.6086 73.6845 14.5467 73.8262 14.4849 74.339 13.7788 74.339 13.7788L73.9345 13.9643 74.035 13.4206 73.5737 14.0107 73.3315 13.5211 73.3237 14.1421C73.2155 14.1344 73.1356 14.0571 73.0892 13.9257 73.0428 13.7943 72.9423 13.5391 72.9423 13.5391L73.3959 13.065C72.7645 13.0031 72.5455 12.8408 72.4295 12.7145 72.3136 12.5908 72.3084 12.5805 72.2466 12.5728 72.2079 12.5676 72.1383 12.5831 72.1383 12.5831 71.8729 12.5986 71.3498 12.3125 71.3498 12.3125 71.3498 12.3125 71.5534 12.2352 71.7801 12.1115 72.0069 11.9878 72.061 11.8023 72.061 11.8023L71.8343 11.9028 71.8188 11.4518 71.6307 11.7997 71.458 11.4286 71.4658 11.841 71.0303 12.1888 70.8911 12.3821 71.3266 12.6218C71.6616 12.846 71.7157 12.7841 72.0997 13.0418L72.0997 13.0418ZM71.556 14.0339C71.7853 14.1267 71.994 14.4153 71.994 14.4153L72.4012 14.0416C72.3883 13.2273 71.8549 13.0624 71.8549 13.0624 71.7956 13.2067 71.0174 13.7865 71.0174 13.7865 71.0715 13.8638 71.306 13.9334 71.556 14.0339L71.556 14.0339ZM70.3654 13.6809C70.484 13.6809 70.7133 13.8716 70.7416 14.1061 70.77 14.3406 70.7082 14.5648 70.8422 14.874 70.9684 15.16 70.904 15.2966 70.8937 15.3146 70.9246 15.2451 71.1282 15.008 71.2029 14.9487 71.2751 14.8869 71.3601 14.8431 71.708 15.1884 72.0559 15.5363 70.9839 15.6857 70.9839 15.6857L71.3601 16.4923 71.3704 16.08 71.6436 16.4227 71.6101 15.9872 71.8961 16.098 71.6771 15.8223 72.1873 15.6084C72.1873 15.6084 72.0791 15.1136 71.9786 14.8611 71.8781 14.6086 71.6925 14.4024 71.5611 14.2787 71.3962 14.1215 71.0767 14.0442 70.9298 13.8767 70.7829 13.7092 70.4015 13.0366 70.4015 13.0366L70.283 13.2222C70.1644 13.3897 69.9686 13.7762 69.9686 13.7762L69.6155 13.5752 69.7727 13.8484 69.5022 13.9051 69.7109 14.0107 69.6155 14.1834 70.1979 14.1009 70.3654 13.6809 70.3654 13.6809ZM68.0462 15.0003C67.572 15.4976 67.7498 15.8945 67.7498 15.8945 68.1055 16.3248 69.046 16.3068 69.5408 16.1728 70.0536 16.0336 70.569 15.7089 70.6437 15.5981 70.721 15.4873 70.7674 15.2322 70.703 15.0518 70.5845 14.7245 70.6102 14.5003 70.6102 14.5003 70.4994 14.8895 70.2623 15.1497 69.6593 15.5801 69.0564 16.0104 68.4379 15.6986 68.2498 15.562 68.0617 15.428 68.157 15.2064 68.5049 14.9461 68.8528 14.6833 69.497 14.7477 69.6258 14.8456 69.7006 14.9023 69.7186 15.057 69.6181 15.1575 69.515 15.258 69.3965 15.3018 69.2702 15.209 69.144 15.1162 69.2367 14.9642 69.2367 14.9642 69.2367 14.9642 69.1105 14.9565 69.0151 15.124 68.9223 15.2915 68.9739 15.3507 69.3295 15.4203 69.6851 15.4873 69.7624 15.294 69.8655 15.0905 69.9686 14.8869 69.881 14.7374 69.5176 14.5931 69.1517 14.4488 68.5255 14.4978 68.0488 14.9977L68.0488 14.9977ZM74.3932 11.9183C74.3081 11.9389 74.0556 12.0651 74.0453 12.1064 74.0453 12.1064 74.5735 11.9904 74.6354 12.011 74.6998 12.0316 74.7926 12.0213 74.8982 11.9363 75.0039 11.8513 75.2152 11.707 75.1301 11.6013 75.0451 11.4956 74.9626 11.3281 74.8235 11.3823 74.6869 11.4338 74.5168 11.4544 74.54 11.5291 74.5606 11.6013 74.5813 11.6657 74.6122 11.676 74.6431 11.6863 74.6972 11.7379 74.7694 11.6863 74.8441 11.6348 74.8544 11.5601 74.8544 11.5601 74.8544 11.5601 74.7797 11.6013 74.7488 11.6013 74.7178 11.6013 74.674 11.591 74.6869 11.5601 74.6972 11.5291 74.7926 11.4853 74.7926 11.4853 74.7926 11.4853 74.8982 11.4647 74.9395 11.4956 74.9807 11.5266 75.0039 11.6631 75.0039 11.6631 75.0039 11.6631 74.8982 11.8513 74.8467 11.8719 74.7952 11.8925 74.7101 11.9028 74.6663 11.9028 74.6225 11.9028 74.4756 11.8925 74.3932 11.9131L74.3932 11.9131ZM73.0841 12.0935C73.1459 12.0935 73.1949 12.1502 73.1949 12.2172 73.1949 12.2842 73.1459 12.3409 73.0841 12.3409 73.0222 12.3409 72.9758 12.2842 72.9758 12.2172 72.9758 12.1476 73.0248 12.0935 73.0841 12.0935L73.0841 12.0935ZM73.8571 12.0342C74.12 11.7405 74.3854 11.7173 73.901 11.5395 73.5531 11.4132 73.0815 11.4647 72.7053 11.5858 72.5094 11.6477 72.3574 12.0832 72.4063 12.2533 72.4527 12.4259 72.3677 12.4646 72.3677 12.4646 72.3677 12.4646 72.4141 12.4568 72.5403 12.5419 72.6666 12.6269 72.6821 12.6991 72.9475 12.73 73.2129 12.7609 73.7309 12.7686 73.7309 12.7686L74.3055 12.1734 73.4088 12.4027C73.4088 12.4027 73.736 12.1708 73.8571 12.0342L73.8571 12.0342Z"
                                    fill="#3C3C3B" fill-rule="evenodd" transform="matrix(1.00166 0 0 1 129 628.033)" />
                              <path d="M12.7171 36.6412 7.90342 36.6412 7.90342 19.1594 8.77184 19.1594 10.3515 16.598 12.0986 19.1594 12.7171 19.1594 12.7171 36.6412Z"
                                    fill="#C76C14" transform="matrix(1.00166 0 0 1 129 628.033)" />
                              <path d="M32.5414 25.3466 35.863 27.6478 35.863 37.1721 29.2609 37.1721 29.2609 27.6478 32.5414 25.3466ZM63.0908 19.8835 51.3606 19.8835 51.3606 16.7113 44.7637 16.7113 44.7637 19.9711 40.285 17.438 35.863 19.9711 35.863 37.2829 44.7637 37.2829 44.7637 37.1798 51.3606 37.1798 51.3606 37.1334 64.1988 37.1334 64.1988 21.1771 63.0908 19.881ZM52.3115 16.0413 51.4637 15.1523 48.1627 6.25419 44.8977 15.1523 44.0499 16.0413 44.0499 16.7088 52.3089 16.7088 52.3089 16.0413ZM7.91373 10.9725 7.91373 10.9725 7.91373 10.7251 7.035 9.98815 5.66665 4.23388 4.33181 9.98815 3.45565 10.7226 3.45565 10.97 3.45565 10.97 3.45565 23.45 3.14127 23.45 3.14127 37.27 8.22553 37.27 8.22553 23.45 7.91115 23.45 7.91115 10.9725ZM17.1649 23.4526 17.1649 10.97 17.1649 10.97 17.1649 10.7226 16.2836 9.98042 14.9178 4.23388 13.583 9.99073 12.7068 10.7251 12.7068 10.9725 12.7068 10.9725 12.7068 23.45 12.3924 23.45 12.3924 37.27 17.4767 37.27 17.4767 23.45 17.1623 23.45ZM28.1451 37.2726 18.6775 37.2726 18.6775 23.4603 28.1451 23.4603 28.1451 37.2726ZM27.5628 10.9828 19.2625 10.9828 19.2625 23.4603 27.5628 23.4603 27.5628 10.9803ZM27.0139 5.90373 19.8114 5.90373 19.8114 10.9828 27.0139 10.9828 27.0139 5.90115ZM23.9241 0.927692C23.9241 0.662269 23.4088 0 23.4088 0 23.4088 0 22.8934 0.662269 22.8934 0.927692 22.8934 1.62346 23.4088 1.74973 23.4088 1.74973 23.4088 1.74973 23.9241 1.65696 23.9241 0.927692ZM23.6974 1.55388 23.1176 1.55388 23.1176 1.91723 23.6974 1.91723 23.6974 1.55388ZM27.604 5.55327 19.2135 5.55327 19.2135 5.89857 27.604 5.89857 27.604 5.55327ZM27.019 5.55327C27.019 3.53038 25.4033 1.89146 23.4088 1.89146 21.4142 1.89146 19.7985 3.53038 19.7985 5.55327L27.019 5.55327ZM37.9993 36.7392 41.4756 36.7392 41.4756 32.2553 37.9993 32.2553 37.9993 36.7392ZM87.1386 36.7392 89.8598 36.7392 89.8598 31.8482 87.1386 31.8482 87.1386 36.7392ZM36.2057 31.8611 91.7848 31.8611 91.7848 30.4566 36.2057 30.4566 36.2057 31.8611ZM88.2931 30.5674C88.2003 30.4927 78.9002 23.0918 63.7505 23.0866L63.7505 23.0866C63.7505 23.0866 63.7427 23.0866 63.7402 23.0866 63.7376 23.0866 63.7324 23.0866 63.7298 23.0866L63.7298 23.0866C48.5801 23.0944 39.28 30.4927 39.1872 30.5674L38.3523 31.2452 63.7402 31.2117 89.128 31.2452 88.2931 30.5674ZM44.5395 30.4747 40.6174 30.4798C41.4292 29.9335 42.7563 29.1115 44.5395 28.2328L44.5395 30.4747ZM48.3199 30.4695 45.3049 30.4747 45.3049 27.8668C46.2094 27.4442 47.2169 27.0164 48.3199 26.6041L48.3199 30.4695ZM52.2213 30.4644 49.0878 30.4695 49.0878 26.3258C50.0644 25.9831 51.1107 25.6558 52.2213 25.3569L52.2213 30.4644ZM56.0145 30.4592 52.9867 30.4644 52.9867 25.1585C53.9504 24.9188 54.958 24.6998 56.0145 24.5168L56.0145 30.4592ZM59.8542 30.4541 56.7799 30.4592 56.7799 24.3906C57.7668 24.2359 58.7925 24.1097 59.8542 24.0169L59.8542 30.4541ZM63.3459 27.3051 63.3459 27.3051 63.3459 28.292 63.3459 28.292 63.3459 30.4489 60.6195 30.4489C60.6195 30.4489 60.6195 23.9576 60.6195 23.9576 61.506 23.8958 62.413 23.8571 63.3459 23.8494L63.3459 24.2849 63.3459 24.2849 63.3459 27.3076ZM66.8608 30.4541 64.1344 30.4541 64.1344 28.2946 64.1344 28.2946 64.1344 27.3076 64.1344 27.3076 64.1344 24.2849 64.1344 24.2849 64.1344 23.8494C65.0673 23.8571 65.9743 23.8958 66.8608 23.9576L66.8608 30.4541ZM70.7004 30.4592 67.6262 30.4541 67.6262 24.0169C68.6878 24.1097 69.7135 24.2359 70.7004 24.3906L70.7004 30.4592ZM74.4936 30.4644 71.4658 30.4592 71.4658 24.5168C72.5197 24.7024 73.5299 24.9188 74.4936 25.1585L74.4936 30.4644ZM78.3951 30.4695 75.2616 30.4644 75.2616 25.3569C76.3748 25.6558 77.421 25.9831 78.3951 26.3258L78.3951 30.4695ZM82.1755 30.4747 79.1605 30.4695 79.1605 26.6041C80.2634 27.0164 81.271 27.4442 82.1755 27.8668L82.1755 30.4747ZM82.9408 30.4747 82.9408 28.2328C84.7266 29.1115 86.0511 29.9335 86.8629 30.4798L82.9408 30.4747ZM65.8996 10.2793 65.191 10.2793 65.191 36.7701 65.8996 36.7701 65.8996 10.2793ZM65.5466 9.5243C65.2631 9.5243 65.0312 9.75365 65.0312 10.0345 65.0312 10.3154 65.2605 10.5448 65.5466 10.5448 65.8326 10.5448 66.062 10.3154 66.062 10.0345 66.062 9.75365 65.8326 9.5243 65.5466 9.5243Z"
                                    fill="url(#fill8)" transform="matrix(1.00166 0 0 1 129 628.033)" />
                              <path d="M23.4139 29.2223 23.3649 29.2223C22.0507 29.2223 20.9865 30.2866 20.9865 31.6008L20.9865 37.0561C20.9865 37.0561 25.7898 37.0561 25.7898 37.0561L25.7898 31.6008C25.7898 30.2866 24.7256 29.2223 23.4113 29.2223Z"
                                    fill="#FFFFFF" fill-opacity="0.5" transform="matrix(1.00166 0 0 1 129 628.033)" />
                              <path d="M25.9058 37.1669 20.8782 37.1669 20.8782 31.5828C20.8782 30.2196 21.9966 29.1115 23.3701 29.1115L23.4139 29.1115C24.7874 29.1115 25.9058 30.2196 25.9058 31.5828L25.9058 37.1669ZM21.1024 36.9453 25.6816 36.9453 25.6816 31.5853C25.6816 30.3458 24.6637 29.3357 23.4139 29.3357L23.3701 29.3357C22.1203 29.3357 21.1024 30.3458 21.1024 31.5853L21.1024 36.9453Z"
                                    fill="#B81526" transform="matrix(1.00166 0 0 1 129 628.033)" />
                              <path d="M21.9451 21.5585 24.875 21.5585 24.875 21.8909 21.9451 21.8909Z" fill="#B11827"
                                    transform="matrix(1.00166 0 0 1 129 628.033)" />
                              <path d="M4.21842 17.0876 7.14838 17.0876 7.14838 17.3427 4.21842 17.3427Z" fill="#C9571A"
                                    transform="matrix(1.00166 0 0 1 129 628.033)" />
                              <path d="M11.39 22.5532C11.39 22.5532 11.408 21.44 10.385 21.4297 9.35423 21.4168 9.35165 22.53 9.35165 22.53L9.33361 29.3821 11.3694 29.3821C11.3694 29.3821 11.3874 22.5532 11.3874 22.5532Z"
                                    fill="#FFFFFF" fill-opacity="0.5" transform="matrix(1.00166 0 0 1 129 628.033)" />
                              <path d="M9.2228 29.4929 9.24084 22.53C9.24084 22.5068 9.24599 21.9579 9.60676 21.6049 9.80261 21.4116 10.0706 21.3163 10.385 21.3189 10.702 21.3214 10.9596 21.4245 11.1503 21.6204 11.5008 21.9786 11.5008 22.5223 11.4982 22.5558L11.4802 29.4929 9.22023 29.4929ZM10.367 21.5431C10.117 21.5431 9.91342 21.6178 9.76396 21.7647 9.46761 22.0533 9.46503 22.5274 9.46503 22.5326L9.44699 29.2738 11.2586 29.2738C11.2586 29.2738 11.2766 22.5558 11.2766 22.5558 11.2766 22.5532 11.2766 22.2929 11.1658 22.0378 11.0215 21.7157 10.7586 21.5482 10.385 21.5431 10.3798 21.5431 10.3747 21.5431 10.3695 21.5431Z"
                                    fill="#AB4B17" transform="matrix(1.00166 0 0 1 129 628.033)" />
                              <path d="M8.87234 29.1656 11.8023 29.1656 11.8023 29.6037 8.87234 29.6037Z" fill="#AB4B17"
                                    transform="matrix(1.00166 0 0 1 129 628.033)" />
                              <path d="M23.5582 36.7933 23.2206 36.7933 23.2206 29.3408C23.2206 29.3408 23.3418 29.3331 23.3881 29.3357 23.4423 29.3357 23.5582 29.3408 23.5582 29.3408L23.5582 36.7933Z"
                                    fill="#B81526" transform="matrix(1.00166 0 0 1 129 628.033)" />
                              <path d="M11.2895 31.5286 9.33103 31.5286C9.27434 31.5286 9.22796 31.575 9.22796 31.6317L9.22796 37.0819 11.3926 37.0819 11.3926 31.6317C11.3926 31.575 11.3462 31.5286 11.2895 31.5286Z"
                                    fill="#FFFFFF" fill-opacity="0.5" transform="matrix(1.00166 0 0 1 129 628.033)" />
                              <path d="M11.506 37.1901 9.11715 37.1901 9.11715 31.7374C9.11715 31.5596 9.26146 31.4178 9.43926 31.4178L11.1813 31.4178C11.3591 31.4178 11.5034 31.5621 11.5034 31.7374L11.5034 37.1901ZM9.34134 36.9685 11.2818 36.9685 11.2818 31.7374C11.2818 31.6833 11.238 31.6394 11.1838 31.6394L9.44184 31.6394C9.38773 31.6394 9.34392 31.6833 9.34392 31.7374L9.34392 36.9685Z"
                                    fill="#AB4B17" transform="matrix(1.00166 0 0 1 129 628.033)" />
                              <path d="M13.4876 17.0876 16.4176 17.0876 16.4176 17.3427 13.4876 17.3427Z" fill="#BF380A"
                                    transform="matrix(1.00166 0 0 1 129 628.033)" />
                              <path d="M35.8682 19.9918 44.7663 19.9918 44.7663 20.2469 35.8682 20.2469Z" fill="#B12A3A"
                                    transform="matrix(1.00166 0 0 1 129 628.033)" />
                              <path d="M44.5627 19.9918 44.7663 19.9918 44.7663 37.4427 44.5627 37.4427Z" fill="#B12A3A"
                                    transform="matrix(1.00166 0 0 1 129 628.033)" />
                              <path d="M35.662 27.6658 35.8656 27.6658 35.8656 36.6361 35.662 36.6361Z" fill="#C12E0C"
                                    transform="matrix(1.00166 0 0 1 129 628.033)" />
                              <path d="M51.3632 19.8835 51.5668 19.8835 51.5668 37.4401 51.3632 37.4401Z" fill="#A60552"
                                    transform="matrix(1.00166 0 0 1 129 628.033)" />
                              <path d="M64.2014 30.4515 64.405 30.4515 64.405 31.8611 64.2014 31.8611Z" fill="#642263"
                                    transform="matrix(1.00166 0 0 1 129 628.033)" />
                              <path d="M64.2014 23.8494 64.2014 23.0892 64.405 23.0892 64.405 23.852C64.3535 23.852 64.2014 23.852 64.2014 23.852Z"
                                    fill="#642263" transform="matrix(1.00166 0 0 1 129 628.033)" />
                              <path d="M29.2713 27.6658 35.8656 27.6658 35.8656 27.9209 29.2713 27.9209Z" fill="#C12E0C"
                                    transform="matrix(1.00166 0 0 1 129 628.033)" />
                              <path d="M44.7637 16.7113 51.358 16.7113 51.358 16.9665 44.7637 16.9665Z" fill="#A60552"
                                    transform="matrix(1.00166 0 0 1 129 628.033)" />
                              <path d="M19.2573 23.2026 27.5576 23.2026 27.5576 23.4577 19.2573 23.4577Z" fill="#B81526"
                                    transform="matrix(1.00166 0 0 1 129 628.033)" />
                              <path d="M19.8088 10.72 27.0113 10.72 27.0113 10.9751 19.8088 10.9751Z" fill="#B81526"
                                    transform="matrix(1.00166 0 0 1 129 628.033)" />
                              <path d="M19.8088 5.90115 27.0113 5.90115 27.0113 6.01196 19.8088 6.01196Z" fill="#B81526"
                                    transform="matrix(1.00166 0 0 1 129 628.033)" />
                              <path d="M23.6974 1.90435C23.6974 1.90435 23.4783 1.89661 23.4062 1.89661 23.334 1.89661 23.1176 1.90435 23.1176 1.90435L23.1176 1.78581 23.6974 1.78581 23.6974 1.90435Z"
                                    fill="#B81526" transform="matrix(1.00166 0 0 1 129 628.033)" />
                              <path d="M8.84657 19.3785 7.90342 19.3785 7.90342 18.9352 8.59146 18.9352 10.385 15.9151 12.1734 18.8425 12.7068 18.8425 12.7068 19.2857 11.9208 19.2857 10.3901 16.7809 8.84657 19.3785Z"
                                    fill="#AB4B17" transform="matrix(1.00166 0 0 1 129 628.033)" />
                              <path d="M4.64877 2.47384 6.68453 2.47384 6.68453 2.80627 4.64877 2.80627Z" fill="#D26218"
                                    transform="matrix(1.00166 0 0 1 129 628.033)" />
                              <path d="M5.49915 1.48946 5.83673 1.48946 5.83673 4.94769 5.49915 4.94769Z" fill="#D26218"
                                    transform="matrix(1.00166 0 0 1 129 628.033)" />
                              <path d="M13.8999 2.47642 15.9357 2.47642 15.9357 2.80884 13.8999 2.80884Z" fill="#D26218"
                                    transform="matrix(1.00166 0 0 1 129 628.033)" />
                              <path d="M14.7503 1.49204 15.0879 1.49204 15.0879 4.95027 14.7503 4.95027Z" fill="#D26218"
                                    transform="matrix(1.00166 0 0 1 129 628.033)" />
                              <path d="M22.043 10.068 20.654 10.068 20.654 7.43442C20.654 7.43442 20.6463 6.54538 21.3498 6.54538 22.0533 6.54538 22.043 7.43442 22.043 7.43442L22.043 10.068ZM24.1045 7.43442C24.1045 7.43442 24.1071 6.54538 23.4113 6.54538 22.7156 6.54538 22.7156 7.43442 22.7156 7.43442L22.7156 10.068 24.1045 10.068 24.1045 7.43442ZM26.1661 7.43442C26.1661 7.43442 26.1686 6.54538 25.4729 6.54538 24.7771 6.54538 24.7771 7.43442 24.7771 7.43442L24.7771 10.068 26.1661 10.068 26.1661 7.43442ZM24.4292 14.8121C24.4292 14.8121 24.4344 13.6989 23.4113 13.6989 22.3883 13.6989 22.3934 14.8121 22.3934 14.8121L22.3934 21.6719 24.4292 21.6719 24.4292 14.8121ZM6.73865 14.825C6.73865 14.825 6.75669 13.7118 5.73365 13.7015 4.71061 13.6912 4.7003 14.8018 4.7003 14.8018L4.68742 17.201 6.72061 17.1906 6.73607 14.825ZM55.9682 23.1897C55.9682 23.1897 55.9707 22.3007 55.275 22.3007 54.5792 22.3007 54.5792 23.1897 54.5792 23.1897L54.5792 25.8233 55.9682 25.8233 55.9682 23.1897ZM58.4961 23.1897C58.4961 23.1897 58.4987 22.3007 57.8029 22.3007 57.1072 22.3007 57.1072 23.1897 57.1072 23.1897L57.1072 25.8233 58.4961 25.8233 58.4961 23.1897ZM61.0241 23.1897C61.0241 23.1897 61.0267 22.3007 60.3309 22.3007 59.6351 22.3007 59.6351 23.1897 59.6351 23.1897L59.6351 25.8233 61.0241 25.8233 61.0241 23.1897ZM49.9356 31.5286 46.1578 31.5286 46.1578 36.9711 49.9356 36.9711 49.9356 31.5286ZM56.0867 29.3666 54.4761 29.3666 54.4761 33.4974 56.0867 33.4974 56.0867 29.3666ZM58.5812 29.3666 56.9706 29.3666 56.9706 33.4974 58.5812 33.4974 58.5812 29.3666ZM39.865 29.3666 38.2544 29.3666 38.2544 33.4974 39.865 33.4974 39.865 29.3666ZM42.3594 29.3666 40.7489 29.3666 40.7489 33.4974 42.3594 33.4974 42.3594 29.3666ZM32.1084 32.8016 30.4979 32.8016 30.4979 35.3322 32.1084 35.3322 32.1084 32.8016ZM34.6029 32.8016 32.9923 32.8016 32.9923 35.3322 34.6029 35.3322 34.6029 32.8016ZM32.1084 29.3331 30.4979 29.3331 30.4979 31.8636 32.1084 31.8636 32.1084 29.3331ZM34.6029 29.3331 32.9923 29.3331 32.9923 31.8636 34.6029 31.8636 34.6029 29.3331ZM39.8624 22.7284 38.2518 22.7284 38.2518 26.8593 39.8624 26.8593 39.8624 22.7284ZM42.3569 22.7284 40.7463 22.7284 40.7463 26.8593 42.3569 26.8593 42.3569 22.7284ZM61.1993 29.364 59.5887 29.364 59.5887 33.4948 61.1993 33.4948 61.1993 29.364ZM16.0053 14.8225C16.0053 14.8225 16.0233 13.7092 15.0003 13.6989 13.9772 13.6886 13.9669 14.7993 13.9669 14.7993L13.954 17.1984 15.9872 17.1881 16.0027 14.8225ZM48.0544 26.4598C47.0855 26.4598 46.297 27.2406 46.297 28.2018 46.297 29.163 47.0829 29.9438 48.0544 29.9438 49.0259 29.9438 49.8119 29.163 49.8119 28.2018 49.8119 27.2406 49.0259 26.4598 48.0544 26.4598Z"
                                    fill="#FFFFFF" fill-opacity="0.5" transform="matrix(1.00166 0 0 1 129 628.033)" />
                              <path d="M50.0438 37.0819 46.0419 37.0819 46.0419 31.4153 50.0438 31.4153 50.0438 37.0819ZM46.266 36.8603 49.8196 36.8603 49.8196 31.6394 46.266 31.6394 46.266 36.8603ZM34.7137 35.4456 32.8789 35.4456 32.8789 32.6934 34.7137 32.6934 34.7137 35.4456ZM33.1031 35.2239 34.4895 35.2239 34.4895 32.915 33.1031 32.915 33.1031 35.2239ZM32.2192 35.4456 30.3845 35.4456 30.3845 32.6934 32.2192 32.6934 32.2192 35.4456ZM30.6087 35.2239 31.9951 35.2239 31.9951 32.915 30.6087 32.915 30.6087 35.2239ZM61.3101 33.6082 59.4753 33.6082 59.4753 29.2558 61.3101 29.2558 61.3101 33.6082ZM59.6995 33.3866 61.0859 33.3866 61.0859 29.48 59.6995 29.48 59.6995 33.3866ZM58.6894 33.6082 56.8546 33.6082 56.8546 29.2558 58.6894 29.2558 58.6894 33.6082ZM57.0788 33.3866 58.4652 33.3866 58.4652 29.48 57.0788 29.48 57.0788 33.3866ZM56.1949 33.6082 54.3602 33.6082 54.3602 29.2558 56.1949 29.2558 56.1949 33.6082ZM54.5844 33.3866 55.9707 33.3866 55.9707 29.48 54.5844 29.48 54.5844 33.3866ZM42.4677 33.6082 40.6329 33.6082 40.6329 29.2558 42.4677 29.2558 42.4677 33.6082ZM40.8571 33.3866 42.2435 33.3866 42.2435 29.48 40.8571 29.48 40.8571 33.3866ZM39.9732 33.6082 38.1384 33.6082 38.1384 29.2558 39.9732 29.2558 39.9732 33.6082ZM38.3626 33.3866 39.749 33.3866 39.749 29.48 38.3626 29.48 38.3626 33.3866ZM34.7137 31.977 32.8789 31.977 32.8789 29.2249 34.7137 29.2249 34.7137 31.977ZM33.1031 31.7554 34.4895 31.7554 34.4895 29.4465 33.1031 29.4465 33.1031 31.7554ZM32.2192 31.977 30.3845 31.977 30.3845 29.2249 32.2192 29.2249 32.2192 31.977ZM30.6087 31.7554 31.9951 31.7554 31.9951 29.4465 30.6087 29.4465 30.6087 31.7554ZM48.0544 30.0572C47.0237 30.0572 46.1862 29.2249 46.1862 28.2044 46.1862 27.1839 47.0237 26.3516 48.0544 26.3516 49.0852 26.3516 49.9227 27.1839 49.9227 28.2044 49.9227 29.2249 49.0852 30.0572 48.0544 30.0572ZM48.0544 26.5732C47.1474 26.5732 46.4104 27.3051 46.4104 28.2044 46.4104 29.1038 47.1474 29.8356 48.0544 29.8356 48.9615 29.8356 49.6985 29.1038 49.6985 28.2044 49.6985 27.3051 48.9615 26.5732 48.0544 26.5732ZM42.4702 26.9752 40.6355 26.9752 40.6355 22.6228 42.4702 22.6228 42.4702 26.9752ZM40.8597 26.7536 42.2461 26.7536 42.2461 22.847 40.8597 22.847 40.8597 26.7536ZM39.9758 26.9752 38.141 26.9752 38.141 22.6228 39.9758 22.6228 39.9758 26.9752ZM38.3652 26.7536 39.7516 26.7536 39.7516 22.847 38.3652 22.847 38.3652 26.7536ZM61.1349 25.9367 59.5217 25.9367 59.5217 23.1923C59.5217 23.1717 59.5217 22.6846 59.8078 22.396 59.9443 22.2594 60.1196 22.1924 60.3283 22.1924 60.537 22.1924 60.7097 22.2594 60.8437 22.396 61.1323 22.6846 61.1349 23.1743 61.1349 23.1949L61.1349 25.9393ZM59.7459 25.7151 60.9107 25.7151 60.9107 23.1923C60.9107 23.1923 60.9107 22.9836 60.8308 22.7826 60.7329 22.5352 60.568 22.4141 60.3283 22.4141 60.1788 22.4141 60.0603 22.4604 59.9675 22.5532 59.7433 22.7774 59.7459 23.1871 59.7459 23.1923L59.7459 25.7151ZM58.6069 25.9367 56.9938 25.9367 56.9938 23.1923C56.9938 23.1717 56.9938 22.6846 57.2798 22.396 57.4164 22.2594 57.589 22.1924 57.8004 22.1924 58.0117 22.1924 58.1817 22.2594 58.3157 22.396 58.6044 22.6846 58.6069 23.1743 58.6069 23.1949L58.6069 25.9393ZM57.218 25.7151 58.3827 25.7151 58.3827 23.1923C58.3827 23.1923 58.3827 22.9836 58.3029 22.7826 58.2049 22.5352 58.04 22.4141 57.8004 22.4141 57.6509 22.4141 57.5349 22.4604 57.4396 22.5532 57.218 22.7748 57.2154 23.1897 57.2154 23.1923L57.2154 25.7151ZM56.079 25.9367 54.4658 25.9367 54.4658 23.1923C54.4658 23.1717 54.4658 22.6846 54.7519 22.396 54.8884 22.2594 55.0611 22.1924 55.2724 22.1924 55.4837 22.1924 55.6538 22.2594 55.7878 22.396 56.0764 22.6846 56.079 23.1743 56.079 23.1949L56.079 25.9393ZM54.69 25.7151 55.8548 25.7151 55.8548 23.1923C55.8548 23.1923 55.8548 22.9836 55.7749 22.7826 55.677 22.5352 55.512 22.4141 55.2724 22.4141 55.1229 22.4141 55.007 22.4604 54.9116 22.5532 54.69 22.7748 54.6874 23.1897 54.6874 23.1923L54.6874 25.7151ZM24.54 21.7853 22.2801 21.7853 22.2801 14.8147C22.2801 14.7915 22.2801 14.2426 22.6357 13.8845 22.8315 13.6886 23.0918 13.5907 23.4113 13.5907 23.7309 13.5907 23.986 13.6886 24.1818 13.8819 24.54 14.2401 24.5426 14.7915 24.5426 14.8147L24.5426 21.7853ZM22.5043 21.5637 24.3158 21.5637 24.3158 14.8147C24.3158 14.8147 24.3158 14.5519 24.1973 14.2993 24.0478 13.9772 23.7824 13.8149 23.4088 13.8149 23.1511 13.8149 22.9449 13.8922 22.7929 14.0442 22.5017 14.3354 22.5017 14.8121 22.5017 14.8147L22.5017 21.5637ZM13.8458 17.3143 13.8587 14.8018C13.8587 14.7786 13.8638 14.2298 14.2246 13.8767 14.423 13.6835 14.6859 13.5855 15.0028 13.5907 15.3198 13.5933 15.5775 13.6963 15.7682 13.8922 16.1212 14.253 16.1186 14.8044 16.1186 14.8276L16.1032 17.3015 13.8458 17.3118ZM14.9874 13.8149C14.7374 13.8149 14.5338 13.8896 14.3844 14.0339 14.0906 14.32 14.0829 14.7993 14.0829 14.8044L14.07 17.0927 15.879 17.085 15.8945 14.8276C15.8945 14.8276 15.8945 14.5648 15.7836 14.3096 15.6393 13.9875 15.3765 13.82 15.0028 13.8149 14.9977 13.8149 14.9925 13.8149 14.9874 13.8149ZM4.57661 17.3143 4.5895 14.8018C4.5895 14.7786 4.59465 14.2298 4.95542 13.8767 5.15127 13.6835 5.41927 13.5855 5.73365 13.5907 6.05061 13.5933 6.3083 13.6963 6.499 13.8922 6.84946 14.2504 6.84946 14.7915 6.84946 14.8276L6.834 17.304 4.57661 17.3143ZM5.71819 13.8149C5.46823 13.8149 5.26465 13.8896 5.11519 14.0339 4.82142 14.32 4.81369 14.7993 4.81369 14.8044L4.8008 17.0927 6.6098 17.085 6.62527 14.8276C6.62527 14.8276 6.62527 14.5648 6.51446 14.3096 6.37015 13.9875 6.1073 13.82 5.73365 13.8149 5.7285 13.8149 5.72334 13.8149 5.71819 13.8149ZM26.2794 10.184 24.6663 10.184 24.6663 7.43957C24.6663 7.41896 24.6663 6.93192 24.9523 6.6433 25.0889 6.50673 25.2641 6.43973 25.4729 6.43973 25.6816 6.43973 25.8543 6.50673 25.9883 6.6433 26.2769 6.93192 26.2794 7.42153 26.2794 7.44215L26.2794 10.1866ZM24.8905 9.96238 26.0553 9.96238 26.0553 7.43957C26.0553 7.43957 26.0553 7.23084 25.9754 7.02984 25.8774 6.78246 25.7125 6.66134 25.4729 6.66134 25.3234 6.66134 25.2074 6.70773 25.1121 6.8005 24.8905 7.02211 24.8905 7.437 24.8905 7.43957L24.8905 9.96238ZM24.2179 10.184 22.6048 10.184 22.6048 7.43957C22.6048 7.41896 22.6048 6.93192 22.8908 6.6433 23.0274 6.50673 23.2026 6.43973 23.4113 6.43973 23.6201 6.43973 23.7927 6.50673 23.9267 6.6433 24.2153 6.93192 24.2179 7.42153 24.2179 7.44215L24.2179 10.1866ZM22.8289 9.96238 23.9937 9.96238 23.9937 7.43957C23.9937 7.43957 23.9937 7.23084 23.9138 7.02984 23.8159 6.78246 23.651 6.66134 23.4113 6.66134 23.2619 6.66134 23.1459 6.70773 23.0506 6.8005 22.8289 7.02211 22.8289 7.437 22.8289 7.43957L22.8289 9.96238ZM22.1564 10.184 20.5432 10.184 20.5432 7.43957C20.5432 7.41896 20.5432 6.93192 20.8293 6.6433 20.9658 6.50673 21.1385 6.43973 21.3498 6.43973 21.5611 6.43973 21.7312 6.50673 21.8652 6.6433 22.1538 6.93192 22.1564 7.42153 22.1564 7.44215L22.1564 10.1866ZM20.7674 9.96238 21.9322 9.96238 21.9322 7.43957C21.9322 7.43957 21.9322 7.23084 21.8523 7.02984 21.7544 6.78246 21.5894 6.66134 21.3498 6.66134 21.2003 6.66134 21.0844 6.70773 20.989 6.8005 20.7674 7.02211 20.7648 7.437 20.7648 7.43957L20.7648 9.96238Z"
                                    fill="url(#fill9)" transform="matrix(1.00166 0 0 1 129 628.033)" />
                              <path d="M1.16735 36.6387 93.7999 36.6387 93.7999 37.5483 1.16735 37.5483Z"
                                    fill="url(#fill10)" transform="matrix(1.00166 0 0 1 129 628.033)" />
                              <path d="M1.16735 36.6387 93.7999 36.6387 93.7999 36.8113 1.16735 36.8113Z"
                                    fill="url(#fill11)" transform="matrix(1.00166 0 0 1 129 628.033)" />
                              <path d="M3.45565 23.2309 7.9163 23.2309 7.9163 23.4526 3.45565 23.4526Z" fill="#C9571A"
                                    transform="matrix(1.00166 0 0 1 129 628.033)" />
                              <path d="M12.7042 23.2284 17.1649 23.2284 17.1649 23.45 12.7042 23.45Z" fill="#DF4C0D"
                                    transform="matrix(1.00166 0 0 1 129 628.033)" />
                              <path d="M3.45565 10.7251 7.9163 10.7251 7.9163 10.9468 3.45565 10.9468Z" fill="#C9571A"
                                    transform="matrix(1.00166 0 0 1 129 628.033)" />
                              <path d="M12.7068 10.7226 17.1649 10.7226 17.1649 10.9442 12.7068 10.9442Z" fill="#DF4C0D"
                                    transform="matrix(1.00166 0 0 1 129 628.033)" />
                              <path d="M54.1437 25.7125 56.3985 25.7125 56.3985 26.0321 54.1437 26.0321Z"
                                    fill="url(#fill12)" transform="matrix(1.00166 0 0 1 129 628.033)" />
                              <path d="M56.6949 25.7125 58.9497 25.7125 58.9497 26.0321 56.6949 26.0321Z" fill="#6D1C74"
                                    transform="matrix(1.00166 0 0 1 129 628.033)" />
                              <path d="M59.2022 25.7125 61.457 25.7125 61.457 26.0321 59.2022 26.0321Z" fill="#4A236B"
                                    transform="matrix(1.00166 0 0 1 129 628.033)" />
                              <path d="M20.4221 9.95722 22.2749 9.95722 22.2749 10.2407 20.4221 10.2407Z" fill="#B81526"
                                    transform="matrix(1.00166 0 0 1 129 628.033)" />
                              <path d="M22.4836 9.95722 24.3364 9.95722 24.3364 10.2407 22.4836 10.2407Z" fill="#B81526"
                                    transform="matrix(1.00166 0 0 1 129 628.033)" />
                              <path d="M24.5374 9.95722 26.3903 9.95722 26.3903 10.2407 24.5374 10.2407Z" fill="#B81526"
                                    transform="matrix(1.00166 0 0 1 129 628.033)" />
                              <path d="M9.11199 49.4511 5.95011 49.4511 5.95011 54.6771C5.95011 55.0018 5.95784 55.3214 5.97588 55.6383 5.99134 55.9553 6.05319 56.2387 6.15884 56.4887 6.2645 56.7412 6.42942 56.9422 6.64846 57.0969 6.87007 57.2515 7.19219 57.3288 7.61738 57.3288 7.87765 57.3288 8.14823 57.3056 8.42653 57.2566 8.70484 57.2077 8.95738 57.12 9.18673 56.9886L9.18673 58.9832C8.92388 59.13 8.5863 59.2305 8.16884 59.2872 7.75138 59.3439 7.42927 59.3723 7.19992 59.3723 6.34953 59.3723 5.69242 59.2537 5.226 59.0192 4.75957 58.7847 4.41684 58.4807 4.19523 58.107 3.97361 57.7333 3.84477 57.3159 3.80354 56.8546 3.76231 56.3934 3.74169 55.9269 3.74169 55.4554L3.74169 49.4511 1.19311 49.4511 1.19311 47.5545 3.74427 47.5545 3.74427 44.3205 5.95011 44.3205 5.95011 47.5545 9.11199 47.5545 9.11199 49.4511ZM11.39 53.3165C11.39 52.4739 11.5498 51.6879 11.8667 50.9586 12.1863 50.2294 12.6218 49.5903 13.1784 49.0388 13.735 48.4874 14.387 48.0544 15.1394 47.7375 15.8919 47.4205 16.701 47.2633 17.5669 47.2633 18.4327 47.2633 19.2419 47.4205 19.9943 47.7375 20.7468 48.0544 21.3988 48.4874 21.9554 49.0388 22.5094 49.5903 22.9475 50.2294 23.267 50.9586 23.5866 51.6879 23.7463 52.4739 23.7463 53.3165 23.7463 54.1592 23.5866 54.9503 23.267 55.6873 22.9475 56.4243 22.512 57.0659 21.9554 57.6071 21.3988 58.1508 20.7468 58.5786 19.9943 58.8955 19.2419 59.2125 18.4327 59.3697 17.5669 59.3697 16.701 59.3697 15.8919 59.2125 15.1394 58.8955 14.387 58.5786 13.735 58.1508 13.1784 57.6071 12.6218 57.0634 12.1863 56.4243 11.8667 55.6873 11.5472 54.9503 11.39 54.1592 11.39 53.3165ZM13.7427 53.3165C13.7427 53.8989 13.8329 54.44 14.0133 54.9322 14.1937 55.427 14.4462 55.847 14.7735 56.1975 15.1008 56.5454 15.5002 56.8211 15.9743 57.0247 16.4485 57.2283 16.9793 57.3288 17.5669 57.3288 18.1544 57.3288 18.6853 57.2283 19.1594 57.0247 19.6336 56.8211 20.033 56.548 20.3603 56.1975 20.6875 55.8496 20.9401 55.427 21.1204 54.9322 21.3008 54.4375 21.391 53.8989 21.391 53.3165 21.391 52.7341 21.3008 52.1955 21.1204 51.7008 20.9401 51.206 20.6875 50.786 20.3603 50.4355 20.033 50.0876 19.6336 49.8119 19.1594 49.6083 18.6853 49.4047 18.1544 49.3042 17.5669 49.3042 16.9793 49.3042 16.4485 49.4047 15.9743 49.6083 15.5002 49.8119 15.1008 50.0876 14.7735 50.4355 14.4462 50.7834 14.1937 51.206 14.0133 51.7008 13.8329 52.1955 13.7427 52.7341 13.7427 53.3165ZM26.5139 47.5545 28.7198 47.5545 28.7198 49.2089 28.7688 49.2089C29.1939 48.593 29.7789 48.1163 30.5211 47.7735 31.2658 47.4334 32.0286 47.2633 32.8119 47.2633 33.7113 47.2633 34.523 47.4179 35.2497 47.7246 35.9764 48.0338 36.5974 48.4616 37.1128 49.013 37.6282 49.5645 38.0225 50.2087 38.3008 50.9457 38.5791 51.6827 38.7182 52.4739 38.7182 53.3165 38.7182 54.1592 38.5791 54.9735 38.3008 55.7105 38.0225 56.4475 37.6256 57.0891 37.1128 57.6303 36.5974 58.174 35.9764 58.5992 35.2497 58.9058 34.523 59.2125 33.7087 59.3671 32.8119 59.3671 31.9796 59.3671 31.1936 59.1919 30.4592 58.844 29.7248 58.4961 29.1604 58.022 28.7688 57.4215L28.7198 57.4215 28.7198 65.9305 26.5139 65.9305 26.5139 47.5519ZM32.5439 49.3042C31.9564 49.3042 31.4256 49.4047 30.9514 49.6083 30.4773 49.8119 30.0778 50.0876 29.7506 50.4355 29.4233 50.7834 29.1708 51.206 28.9904 51.7008 28.81 52.1955 28.7198 52.7341 28.7198 53.3165 28.7198 53.8989 28.81 54.44 28.9904 54.9322 29.1708 55.427 29.4233 55.847 29.7506 56.1975 30.0778 56.5454 30.4773 56.8211 30.9514 57.0247 31.4256 57.2283 31.9564 57.3288 32.5439 57.3288 33.1315 57.3288 33.6623 57.2283 34.1365 57.0247 34.6106 56.8211 35.0101 56.548 35.3373 56.1975 35.6646 55.8496 35.9171 55.427 36.0975 54.9322 36.2779 54.4375 36.3681 53.8989 36.3681 53.3165 36.3681 52.7341 36.2779 52.1955 36.0975 51.7008 35.9171 51.206 35.6646 50.786 35.3373 50.4355 35.0101 50.0876 34.6106 49.8119 34.1365 49.6083 33.6623 49.4047 33.1315 49.3042 32.5439 49.3042ZM41.1483 43.4211C41.1483 42.9831 41.3081 42.6068 41.625 42.2899 41.942 41.9729 42.3234 41.8157 42.764 41.8157 43.2047 41.8157 43.5861 41.9729 43.903 42.2899 44.2226 42.6068 44.3823 42.9831 44.3823 43.4211 44.3823 43.8592 44.2226 44.2354 43.903 44.5524 43.5835 44.8694 43.2047 45.0266 42.764 45.0266 42.3234 45.0266 41.942 44.8694 41.625 44.5524 41.3055 44.2354 41.1483 43.8592 41.1483 43.4211ZM41.6637 47.5545 43.8695 47.5545 43.8695 59.0785 41.6637 59.0785 41.6637 47.5545ZM55.6847 50.6185C55.275 50.1959 54.8472 49.8763 54.3988 49.6573 53.9504 49.4382 53.4144 49.33 52.7934 49.33 52.1724 49.33 51.6621 49.4382 51.2137 49.6573 50.7654 49.8763 50.3891 50.1752 50.085 50.5566 49.7836 50.938 49.5542 51.3761 49.3996 51.8683 49.245 52.363 49.1677 52.8784 49.1677 53.4119 49.1677 53.9453 49.2579 54.4529 49.4382 54.9322 49.6186 55.4115 49.8712 55.829 50.1984 56.1846 50.5257 56.5402 50.9174 56.8211 51.3761 57.0221 51.8322 57.2257 52.3476 57.3262 52.9197 57.3262 53.5407 57.3262 54.0715 57.218 54.5122 56.9989 54.9529 56.7799 55.3626 56.4604 55.7388 56.0377L57.3082 57.5942C56.7361 58.2255 56.0712 58.6791 55.311 58.9548 54.5509 59.2305 53.7469 59.3671 52.8965 59.3671 51.9971 59.3671 51.1777 59.2202 50.4329 58.929 49.6882 58.6379 49.0491 58.2281 48.508 57.7024 47.9694 57.1767 47.5519 56.5428 47.2582 55.8058 46.9644 55.0688 46.8175 54.2545 46.8175 53.3629 46.8175 52.4713 46.9644 51.6544 47.2582 50.9071 47.5519 50.1624 47.9642 49.5207 48.4951 48.9873 49.0259 48.4513 49.6624 48.0364 50.4072 47.7349 51.1519 47.436 51.9791 47.2839 52.8939 47.2839 53.7443 47.2839 54.556 47.4334 55.3317 47.7349 56.1073 48.0338 56.7825 48.4925 57.3545 49.1084L55.6873 50.6159ZM58.625 53.3165C58.625 52.4739 58.7847 51.6879 59.1017 50.9586 59.4212 50.2294 59.8567 49.5903 60.4133 49.0388 60.97 48.4874 61.6219 48.0544 62.3744 47.7375 63.1269 47.4205 63.9334 47.2633 64.8018 47.2633 65.6703 47.2633 66.4768 47.4205 67.2293 47.7375 67.9818 48.0544 68.6337 48.4874 69.1903 49.0388 69.747 49.5903 70.1825 50.2294 70.502 50.9586 70.8215 51.6879 70.9813 52.4739 70.9813 53.3165 70.9813 54.1592 70.8215 54.9503 70.502 55.6873 70.1825 56.4243 69.747 57.0659 69.1903 57.6071 68.6337 58.1508 67.9818 58.5786 67.2293 58.8955 66.4768 59.2125 65.6677 59.3697 64.8018 59.3697 63.936 59.3697 63.1269 59.2125 62.3744 58.8955 61.6219 58.5786 60.97 58.1508 60.4133 57.6071 59.8567 57.0634 59.4212 56.4243 59.1017 55.6873 58.7822 54.9503 58.625 54.1592 58.625 53.3165ZM60.9777 53.3165C60.9777 53.8989 61.0679 54.44 61.2483 54.9322 61.4287 55.427 61.6812 55.847 62.0085 56.1975 62.3357 56.5454 62.7352 56.8211 63.2093 57.0247 63.6835 57.2283 64.2143 57.3288 64.8018 57.3288 65.3894 57.3288 65.9202 57.2283 66.3944 57.0247 66.8685 56.8211 67.268 56.548 67.5952 56.1975 67.9225 55.8496 68.175 55.427 68.3554 54.9322 68.5358 54.4375 68.626 53.8989 68.626 53.3165 68.626 52.7341 68.5358 52.1955 68.3554 51.7008 68.175 51.206 67.9225 50.786 67.5952 50.4355 67.268 50.0876 66.8685 49.8119 66.3944 49.6083 65.9202 49.4047 65.3894 49.3042 64.8018 49.3042 64.2143 49.3042 63.6835 49.4047 63.2093 49.6083 62.7352 49.8119 62.3357 50.0876 62.0085 50.4355 61.6812 50.7834 61.4287 51.206 61.2483 51.7008 61.0679 52.1955 60.9777 52.7341 60.9777 53.3165ZM73.7489 47.5545 75.9548 47.5545 75.9548 49.33 76.0037 49.33C76.282 48.7141 76.7639 48.2168 77.4494 47.8354 78.1348 47.454 78.9285 47.2633 79.8279 47.2633 80.3819 47.2633 80.9179 47.3484 81.4333 47.5184 81.9487 47.6885 82.3971 47.9514 82.781 48.3095 83.165 48.6652 83.4716 49.1239 83.701 49.683 83.9303 50.2422 84.0437 50.9019 84.0437 51.6647L84.0437 59.0785 81.8379 59.0785 81.8379 52.2703C81.8379 51.7343 81.7657 51.2782 81.6163 50.8968 81.4694 50.5154 81.2735 50.2087 81.0287 49.9742 80.7839 49.7397 80.503 49.5697 80.1835 49.464 79.864 49.3584 79.5341 49.3068 79.1914 49.3068 78.7327 49.3068 78.3101 49.379 77.9158 49.5259 77.5241 49.6727 77.1814 49.9021 76.885 50.219 76.5913 50.536 76.3619 50.9354 76.1996 51.4225 76.0372 51.9095 75.9548 52.4842 75.9548 53.149L75.9548 59.0811 73.7489 59.0811 73.7489 47.5571ZM88.2338 49.4511 85.7342 49.4511 85.7342 47.5545 88.2338 47.5545 88.2338 44.9776C88.2338 43.4392 88.5327 42.2899 89.128 41.5374 89.7233 40.7849 90.7489 40.4061 92.2048 40.4061 92.4496 40.4061 92.7073 40.4139 92.9779 40.4293 93.2485 40.4448 93.5371 40.4937 93.8489 40.5762L93.6041 42.5218C93.3928 42.4419 93.1866 42.3852 92.9908 42.3517 92.7949 42.3182 92.5811 42.3027 92.3543 42.3027 91.9446 42.3027 91.6199 42.3646 91.3751 42.4857 91.1303 42.6068 90.937 42.7821 90.7978 43.0088 90.6587 43.2356 90.5685 43.5062 90.5273 43.8231 90.486 44.1401 90.4654 44.5009 90.4654 44.9054L90.4654 47.5545 93.0887 47.5545 93.0887 49.4511 90.4422 49.4511 90.4422 59.0785 88.2364 59.0785 88.2364 49.4511Z"
                                    fill="url(#fill13)" transform="matrix(1.00166 0 0 1 129 628.033)" />
                              <path d="M87.1386 31.8482 89.8598 31.8482 89.8598 32.1548 87.1386 32.1548Z" fill="#1C75A1"
                                    transform="matrix(1.00166 0 0 1 129 628.033)" />
                              <path d="M48.1807 31.6394 48.1807 36.6387 47.9385 36.6387 47.9385 31.6394" fill="#A90C43"
                                    transform="matrix(1.00166 0 0 1 129 628.033)" />
                              <path d="M89.079 40.1922C88.8316 40.2 88.5688 40.2026 88.2879 40.2026 86.0099 40.2026 84.9018 39.9449 83.7268 39.6717 82.5465 39.3986 81.3276 39.1125 78.926 39.1125 76.5243 39.1125 75.3054 39.396 74.1251 39.6717 72.9527 39.9449 71.8446 40.2026 69.564 40.2026 67.2834 40.2026 66.1779 39.9449 65.0028 39.6717 63.8226 39.396 62.6037 39.1125 60.202 39.1125 57.8004 39.1125 56.5815 39.396 55.4012 39.6717 54.2287 39.9449 53.1207 40.2026 50.8401 40.2026 48.5595 40.2026 47.454 39.9449 46.2789 39.6717 45.0987 39.396 43.8798 39.1125 41.4781 39.1125 39.0764 39.1125 37.8576 39.396 36.6773 39.6717 35.5048 39.9449 34.3967 40.2026 32.1162 40.2026 29.8356 40.2026 28.7301 39.9449 27.555 39.6717 26.3748 39.3986 25.1559 39.1125 22.7542 39.1125 20.3525 39.1125 19.1336 39.396 17.9534 39.6717 16.7809 39.9449 15.6728 40.2026 13.3923 40.2026 11.1117 40.2026 10.032 39.9423 8.86719 39.6666 7.72303 39.396 6.54023 39.1151 4.28027 39.1151 2.51765 39.1151 0.834923 39.7671 0.203577 40.0119 0.108231 40.0479 0.0386538 40.0763 2.44898e-14 40.0892L0.118538 40.5968 0.118538 41.1199C0.242231 41.1199 0.322115 41.089 0.587538 40.9859 1.16992 40.7617 2.71608 40.1613 4.28027 40.1613 6.41396 40.1613 7.48853 40.4139 8.62238 40.6844 9.79746 40.9627 11.0138 41.2488 13.3923 41.2488 15.7708 41.2488 17.0128 40.9653 18.1931 40.6896 19.3656 40.4164 20.4736 40.1587 22.7542 40.1587 25.0348 40.1587 26.1403 40.4164 27.3154 40.6896 28.4956 40.9627 29.7145 41.2488 32.1162 41.2488 34.5179 41.2488 35.7367 40.9653 36.917 40.6896 38.0895 40.4164 39.1976 40.1587 41.4781 40.1587 43.7587 40.1587 44.8642 40.4164 46.0393 40.6896 47.2195 40.9627 48.4384 41.2488 50.8401 41.2488 53.2418 41.2488 54.4607 40.9653 55.6409 40.6896 56.8134 40.4164 57.9215 40.1587 60.202 40.1587 62.4826 40.1587 63.5881 40.4164 64.7632 40.6896 65.9434 40.9627 67.1623 41.2488 69.564 41.2488 71.9657 41.2488 73.1846 40.9653 74.3648 40.6896 75.5373 40.4164 76.6454 40.1587 78.926 40.1587 81.2065 40.1587 82.312 40.4164 83.4871 40.6896 84.6184 40.9524 85.796 41.2204 88.0044 41.2436 88.0637 41.1586 88.1204 41.071 88.1823 40.9911 88.4322 40.6741 88.7363 40.4113 89.079 40.1897Z"
                                    fill="url(#fill14)" transform="matrix(1.00166 0 0 1 129 628.033)" />
                              <path d="M32.2553 42.3801C29.9773 42.3801 28.8693 42.1224 27.6942 41.8492 26.5139 41.5761 25.2951 41.2926 22.8934 41.2926 20.4917 41.2926 19.2728 41.5761 18.0926 41.8492 16.9201 42.1224 15.812 42.3801 13.5314 42.3801 11.2508 42.3801 10.1453 42.1224 8.97026 41.8492 7.79003 41.5761 6.57115 41.2926 4.16946 41.2926L4.16946 42.3414C6.44746 42.3414 7.55553 42.5991 8.73061 42.8722 9.91084 43.1454 11.1297 43.4289 13.5314 43.4289 15.9331 43.4289 17.152 43.1454 18.3322 42.8722 19.5047 42.5991 20.6128 42.3414 22.8934 42.3414 25.1739 42.3414 26.2794 42.5991 27.4545 42.8722 28.6348 43.1454 29.8536 43.4289 32.2553 43.4289 34.657 43.4289 35.8759 43.1454 37.0561 42.8722 37.9709 42.6584 38.8522 42.4574 40.2747 42.3801 40.4422 41.9574 40.7154 41.5941 41.0555 41.3029 39.0249 41.3441 37.8988 41.6018 36.8165 41.8518 35.644 42.1249 34.5359 42.3826 32.2553 42.3826Z"
                                    fill="url(#fill15)" transform="matrix(1.00166 0 0 1 129 628.033)" />
                              <path d="M83.8633 41.8492C82.6831 41.5761 81.4642 41.2926 79.0625 41.2926 76.6608 41.2926 75.442 41.5761 74.2617 41.8492 73.0892 42.1224 71.9811 42.3801 69.7006 42.3801 67.42 42.3801 66.3145 42.1224 65.1394 41.8492 63.9592 41.5761 62.7403 41.2926 60.3386 41.2926 57.9369 41.2926 56.718 41.5761 55.5378 41.8492 54.3653 42.1224 53.2572 42.3801 50.9767 42.3801 48.6961 42.3801 47.5906 42.1224 46.4155 41.8492 45.9517 41.741 45.4775 41.6327 44.9338 41.54 45.2404 41.875 45.4621 42.2821 45.5754 42.7331 45.7764 42.7769 45.9774 42.8233 46.1759 42.8697 47.3561 43.1428 48.575 43.4263 50.9767 43.4263 53.3784 43.4263 54.5972 43.1428 55.7775 42.8697 56.95 42.5965 58.058 42.3388 60.3386 42.3388 62.6192 42.3388 63.7247 42.5965 64.8998 42.8697 66.08 43.1428 67.2989 43.4263 69.7006 43.4263 72.1023 43.4263 73.3212 43.1428 74.5014 42.8697 75.6739 42.5965 76.782 42.3388 79.0625 42.3388 81.3431 42.3388 82.4486 42.5965 83.6237 42.8697 84.5771 43.0913 85.5693 43.3155 87.1773 43.3954 87.2443 43.0243 87.3344 42.679 87.4453 42.3594 85.8038 42.2976 84.8529 42.0786 83.8633 41.8492Z"
                                    fill="url(#fill16)" transform="matrix(1.00166 0 0 1 129 628.033)" />
                        </g>
                  </g>
            </g>
      </g>
</svg>